<?xml version="1.0" encoding="UTF-8"?>
<svg id="Capa_1" data-name="Capa 1" xmlns="http://www.w3.org/2000/svg" viewBox="0 0 60.96 82.34">
  <defs>
    <style>
      .cls-1 {
        fill: #ccccb0;
      }

      .cls-1, .cls-2, .cls-3, .cls-4 {
        stroke-width: 0px;
      }

      .cls-2 {
        fill: #ba1212;
      }

      .cls-3 {
        opacity: .51;
      }

      .cls-3, .cls-4 {
        fill: #fff;
      }
    </style>
  </defs>
  <path class="cls-2" d="M27.18,12.06h32.41v32.41c0,14.25-11.57,25.81-25.81,25.81H1.37v-32.41c0-14.25,11.57-25.81,25.81-25.81Z" transform="translate(-20.18 33.61) rotate(-45)"/>
  <g>
    <path class="cls-3" d="M47.67,44.22c-.82-.11-1.73.1-2.03-1.1-.08-.34-.74-.4-1.2-.42-.94-.04-1.84.14-2.73.41-.18.08-.36.42-.54.19-.2-.25.16-.33.32-.46,1.3-.58,2.79-.81,3.78-2,.43-.53,1.04-1.06.55-1.79-.46-.68-1.21-.55-1.88-.31-1.98.71-3.34,2.25-4.59,3.8-.96,1.19-.81,1.31-2.48,1.4,1.38-.9,1.78-2.32,2.4-3.6.19-.38.1-.74-.21-.97-.32-.23-.7-.17-1.01.08-.22.17-.45.37-.58.61-.76,1.37-1.64,2.69-2.02,4.23-.09.37-.28.55-.55.71-1.01.58-2.03,1.15-3.1,1.76-.51.54-1.18.94-1.85,1.27-.04.21-.21.4-.47.62-1.9,1.62-3.78,3.27-5.7,4.85-2.49,2.05-5.21,3.81-7.79,5.74.32.44.66.88,1,1.3,1.23-.66,2.52-1.23,3.87-1.73,1.15-.43,2.37-.42,3.57-.48.33-.02.66-.08.66.43.03,2.49,1.84,3.36,3.77,4.11.39.15.78.28,1.12-.09.34-.38.08-.79-.06-1.13-.5-1.21-1.36-2.17-2.33-3.04-.14-.11-.29-.23-.43-.34.26-.18.49-.02.72.07,1.61.38,3.11.21,4.43-.87.31-.25.66-.54.53-1-.11-.41-.49-.39-.85-.49-1.82-.5-3.56-.19-5.28.4-.75.26-1.46.78-2.22.84-1.95.15-3.77.69-5.6,1.29-.17.22-.4.17-.74.1.25-.12.42-.2.58-.29,3.99-2.6,7.56-5.73,11.13-8.88,1.03-.91,2.13-1.72,3.42-2.22.31-.12.53-.35.85.17.88,1.43,2.25,2.27,3.89,2.63.91.2,2.12.76,2.62-.28.49-1.01-.54-1.8-1.27-2.5-1.12-1.07-2.58-1.21-4.24-1.41,1.43-.58,2.62-1.19,3.93-1.35.88-.1,1.79-.33,2.68.25,1.81,1.19,3.82,1.37,5.91.96.43-.08.95-.11.95-.71,0-.58-.52-.7-.94-.76Z"/>
    <path class="cls-1" d="M32.9,39.94c.13-.12.22-.28.31-.42-.1.15-.18.31-.31.42Z"/>
    <path class="cls-4" d="M47.14,23.66c-.1-.51-.59-.31-.92-.27-1.81.22-3.62.15-5.43.26-1.07.06-1.81-.27-2.59-.94-2.59-2.2-6.37-.99-7.27,2.24-.16.55-.24,1.15-.52,1.69-.25.92-.81,1.71-1.49,2.38-.81.81-1.76,1.48-2.75,2.07-.05.09-.13.18-.26.3-2.11,2.14-3.7,4.66-4.91,7.4-1.54,3.44-2.64,7.06-4.33,10.44-.24.45-.36.98-.45,1.49-.08.38-.27.87.1,1.13.4.28.73-.15,1.07-.34.23-.13.42-.57.66-.39,1.21.91,1.4-.42,1.98-.86.18-.13.11-.69.52-.38.65.5.97-.04,1.34-.36.88-.75,1.49-1.65,1.91-2.66,0-.01.01-.02.01-.03.73-2.11.31-5.39.31-5.39,0,0,1.4.81,3.74,3.9.09.1.16.19.24.3.45.56.92,1.12,1.44,1.6.12.1.19.18.27.27.25-.12.48-.26.72-.4.01.01.03.02.04.03.03-.02.06-.04.1-.07,0-.01,0-.03,0-.04.26-.17.5-.38.71-.59-.37-1.39-.96-2.65-1.67-3.92,2.54-.43,4.01-2.04,5.12-4.03,1.02-1.84,1.71-3.77,2.03-5.81-4.24-2.86-7.34,5.53-7.34,5.53-1.08,0,2.16-8.62,7.51-8.51-.08-2.68,1.27-4.39,3.83-4.65,1.83-.19,3.66-.49,5.49-.77.35-.05.94-.03.82-.64ZM34.91,25.29c-.54-.13-.79-.5-.82-1.01-.02-.45.12-.85.6-.86.63,0,.75.52.81,1,.05.42-.1.78-.59.87Z"/>
    <path class="cls-4" d="M19.8,43.62h0s.01-.01.01-.01c0,.01-.01.01-.01.01Z"/>
  </g>
</svg>