<?xml version="1.0" encoding="UTF-8"?>
<svg id="Capa_1" data-name="Capa 1" xmlns="http://www.w3.org/2000/svg" viewBox="0 0 77.35 66.99">
  <defs>
    <style>
      .cls-1 {
        fill: #ba1212;
      }

      .cls-1, .cls-2, .cls-3 {
        stroke-width: 0px;
      }

      .cls-2 {
        opacity: .51;
      }

      .cls-2, .cls-3 {
        fill: #fff;
      }
    </style>
  </defs>
  <polygon class="cls-1" points="38.68 0 0 66.99 77.35 66.99 38.68 0"/>
  <path class="cls-3" d="M59.11,51.94s-.05.03-.08.05c-.49-.51-.98-1.02-1.46-1.53-2.65-2.84-5.26-5.7-7.98-8.46-.77-.79-1.56-1.56-2.34-2.35-.18-.18-.3-.22-.48.02-1.16,1.49-2.28,3.01-3.52,4.43-.23.27-.23.53-.01.83.67.89,1.34,1.81,2,2.72.27.37.25.64-.05.98-1.75,2.09-3.5,4.17-5.25,6.25-.12.14-.25.27-.38.4-.05.06-.12.16-.21.1-.11-.08,0-.16.03-.22.38-.76.77-1.5,1.16-2.25.71-1.4,1.42-2.81,2.15-4.2.14-.27.11-.46-.08-.69-.78-.93-1.54-1.87-2.31-2.81-.28-.33-.3-.67-.09-1.05.89-1.65,1.78-3.31,2.67-4.96.3-.56.58-1.13.88-1.69.15-.26.13-.47-.07-.7-.94-1.1-1.87-2.2-2.8-3.31-.13-.15-.22-.2-.35.02-1.09,1.87-2.33,3.64-3.46,5.49-.13.22-.2.2-.38.05-.8-.72-1.64-1.4-2.42-2.15-.34-.33-.39-.32-.73.02-3.76,3.72-7.38,7.58-11.12,11.31-.57.57-1.15,1.12-1.77,1.64.49-.89.99-1.78,1.49-2.67,2.64-4.74,5.29-9.48,7.93-14.22.15-.27.29-.54.51-.76.39-.37.8-.39,1.22-.06.24.21.48.42.72.63.33.29.38.28.6-.08,1.82-2.94,3.64-5.88,5.46-8.82.08-.14.17-.27.28-.38.32-.32.65-.34,1.02-.09.24.16.41.38.55.63,2.24,3.83,4.47,7.65,6.71,11.47.05.09.1.17.15.26.16.25.34.29.57.09.16-.15.33-.29.5-.43.41-.35.82-.34,1.21.04.15.14.26.32.36.5,1.76,3.07,3.54,6.13,5.3,9.19l2.07,3.62c.46.8.91,1.6,1.36,2.4.14.25.3.49.44.74Z"/>
  <path class="cls-2" d="M44.87,44.45l2.71,3.61c.09.12.08.28-.03.38l-9,9c-.22.22-.57,0-.49-.29l2.62-8.75c.03-.09,0-.19-.05-.26l-2.8-3.73c-.07-.09-.08-.22-.02-.32l3.79-6.64c.07-.11.05-.26-.05-.35l-.84-.84-3.8,5.7c-.1.15-.32.18-.45.04l-2.54-2.54c-.11-.11-.3-.11-.41,0l-15.79,15.79,2.91-5.33s.04-.06.06-.08c.6-.51,1.17-1.05,1.73-1.61,3.74-3.73,7.36-7.59,11.12-11.31.34-.34.39-.35.73-.02.78.75,1.62,1.43,2.42,2.15.18.15.25.17.38-.05,1.13-1.85,2.37-3.62,3.46-5.49.13-.22.22-.17.35-.02.89,1.06,1.77,2.11,2.67,3.16.24.29.28.69.11,1.02-.27.5-.52,1.01-.79,1.52-.86,1.59-1.72,3.2-2.58,4.79-.24.45-.19,1,.14,1.39.68.84,1.36,1.67,2.05,2.5.24.28.28.68.11,1-.7,1.33-1.38,2.69-2.06,4.03-.39.75-.78,1.49-1.16,2.25-.03.06-.14.14-.03.22.09.06.16-.04.21-.1.13-.13.26-.26.38-.4,1.75-2.08,3.5-4.16,5.25-6.25.3-.34.32-.61.05-.98-.66-.91-1.33-1.83-2-2.72-.22-.3-.22-.56.01-.83,1.24-1.42,2.36-2.94,3.52-4.43.18-.24.3-.2.48-.02.78.79,1.57,1.56,2.34,2.35,2.72,2.76,5.33,5.62,7.98,8.46.48.51.97,1.02,1.46,1.53.03-.02.06-.04.08-.05l4.62,7.32-16.22-17.69c-.12-.13-.32-.13-.44,0l-2.19,2.51c-.09.1-.1.26-.01.37Z"/>
</svg>