<?xml version="1.0" encoding="UTF-8"?>
<svg id="Capa_1" data-name="Capa 1" xmlns="http://www.w3.org/2000/svg" viewBox="0 0 63.3 63.3">
  <defs>
    <style>
      .cls-1 {
        fill: #ba1212;
      }

      .cls-1, .cls-2, .cls-3 {
        stroke-width: 0px;
      }

      .cls-2 {
        opacity: .51;
      }

      .cls-2, .cls-3 {
        fill: #fff;
      }
    </style>
  </defs>
  <rect class="cls-1" width="63.3" height="63.3"/>
  <g>
    <path class="cls-3" d="M45.27,29.83c-.05.7-.02,1.41-.06,2.12-.05.98-.49,1.73-1.21,2.34-.79.66-1.7,1.01-2.75.91-.04,0-.08,0-.11,0-.55-.06-.61-.13-.54-.66.18-1.4.37-2.79.55-4.19.18-1.43.36-2.85.53-4.28.05-.45.05-.45.5-.45.71,0,1.29.29,1.82.82.15-1.38-.16-2.55-1.12-3.51-.24-.24-.35-.85-.22-1.15.02-.06.05-.08.11-.05.06.03.12.07.17.11,1.04.93,1.78,2.03,1.93,3.46.08.73.03,1.47.05,2.2,0,.12,0,.25.05.36.32.62.37,1.29.31,1.98Z"/>
    <path class="cls-3" d="M41.14,21.79c-1.65-.37-3.33-.52-5.01-.64-1.59-.11-3.18-.16-4.77-.15-1.53.01-3.07.05-4.6.17-1.57.12-3.13.27-4.67.62-.22.05-.32.02-.29-.23.24-2.25.93-4.31,2.61-5.91.98-.94,2.15-1.57,3.42-2.04.38-.14.4-.11.41.29.02.76.04,1.53.05,2.29,0,.44.17.69.49.71.4.03.81-.27.87-.64.1-.59.03-1.18.05-1.72,0-.52,0-1,0-1.48,0-.34.2-.57.53-.61.92-.12,1.84-.12,2.77,0,.43.06.62.28.62.72,0,.79.03,1.58-.02,2.37-.02.27,0,.55.09.82.11.32.35.5.68.53.36.04.61-.2.62-.59.02-.8.04-1.6.05-2.4,0-.42.04-.44.42-.31,2.94,1.05,4.83,3.07,5.61,6.11.16.6.27,1.21.34,1.82.02.21.02.32-.26.26Z"/>
    <path class="cls-3" d="M41.66,23.86c-.02.15-.16.21-.28.26-.38.16-.78.24-1.19.3-2.51.34-5.04.3-7.57.29-1.26,0-2.52.02-3.78,0-1.59-.03-3.18-.09-4.77-.18-.66-.03-1.33-.09-1.97-.29-.19-.06-.46-.08-.47-.34,0-.25.25-.32.44-.39.8-.32,1.65-.46,2.5-.58,1.97-.28,3.96-.37,5.95-.43,1.64-.05,3.28.01,4.92.1,1.71.09,3.42.28,5.09.68.31.07.61.17.88.32.11.06.27.12.25.28Z"/>
    <path class="cls-3" d="M22.48,35.18c-1.16.19-2.2-.09-3.12-.8-.9-.7-1.36-1.62-1.34-2.77.02-.76-.08-1.52-.06-2.29.01-.47.09-.93.28-1.36.1-.22.14-.45.13-.69-.01-.96-.03-1.92.23-2.87.29-1.06.95-1.88,1.74-2.6.06-.06.13-.14.22-.11.1.04.05.15.06.23,0,.08,0,.15,0,.23.05.35-.08.6-.33.86-.9.92-1.16,2.06-1.03,3.4.46-.49.98-.69,1.56-.78.02,0,.04,0,.06-.01.56-.09.65-.05.73.51.17,1.25.33,2.51.49,3.76.17,1.28.33,2.57.5,3.85.05.36.07.72.14,1.08.04.24-.05.32-.27.36Z"/>
    <path class="cls-3" d="M39.42,27.21c-.04.68-.09,1.44-.13,2.2-.01.21-.11.33-.29.42-.41.2-.86.28-1.3.31-.61.04-1.22.03-1.83-.07-.66-.11-1.18-.45-1.65-.91-.38-.37-.78-.7-1.25-.95-.96-.5-1.9-.46-2.83.09-.39.23-.75.5-1.06.82-.56.56-1.2.93-2,.99-.84.06-1.68.09-2.49-.19-.5-.17-.59-.31-.61-.83-.03-.59-.07-1.18-.11-1.77-.02-.34,0-.67.06-1,.04-.26.16-.39.46-.38,1.97.06,3.95.13,5.92.16,1.58.03,3.17.03,4.75,0,1.28-.02,2.55-.09,3.83-.16.3-.01.43.08.47.38.04.27.02.53.05.88Z"/>
    <path class="cls-3" d="M38.84,31.27c-.59.16-1.2.23-1.8.27-1.25.09-2.38-.21-3.37-1-.4-.32-.78-.67-1.21-.96-.51-.34-1.01-.34-1.54-.06-.35.19-.68.43-.98.69-.64.53-1.3,1.04-2.14,1.21-1.01.21-2.01.14-3.01-.07-.54-.12-.54-.12-.52.42.01.52.08,1.05.18,1.56.48,2.41,1.71,4.31,3.85,5.56,1.41.82,2.92,1.21,4.56.85,2.87-.63,4.68-2.46,5.69-5.15.38-1.02.46-2.1.52-3.18,0-.18-.08-.18-.22-.14ZM35.21,36.52c-.69.16-1.39.27-2.09.3-.54.03-1.08.1-1.52.07-1.25,0-2.37-.12-3.49-.34-.36-.07-.56-.32-.51-.64.05-.32.39-.53.74-.47,1.16.23,2.34.33,3.52.32,1.04-.01,2.07-.1,3.09-.31.36-.07.69.1.75.39.07.32-.12.59-.5.68ZM36.18,34.13c-.04.27-.26.44-.62.42-.69-.04-1.38-.14-2.08-.19-.55-.04-1.11-.02-1.66-.04-1.24-.03-2.48.09-3.71.22-.15.02-.3.02-.46.02-.31,0-.53-.18-.56-.45-.03-.31.15-.58.46-.62.65-.09,1.3-.18,1.96-.23,1.17-.09,2.34-.11,3.52-.06.89.04,1.77.12,2.64.28.33.06.55.36.51.65Z"/>
    <path class="cls-3" d="M48.33,50.94c-.87-.06-1.74-.03-2.6-.04-.78,0-1.57,0-2.35,0h0c-1.48,0-2.96,0-4.44-.01-.56,0-.71-.16-.63-.71.13-.95.27-1.9.41-2.86.28-1.85.61-3.68.96-5.52.17-.9.18-.92,1.05-.67,1.52.44,3.05.89,4.42,1.71,2.04,1.21,3.22,3.04,3.6,5.38.1.62.19,1.24.28,1.87.08.59-.15.89-.69.85Z"/>
    <path class="cls-3" d="M24.23,50.89c-1.54,0-3.07,0-4.61,0v.02c-1.56,0-3.13,0-4.69,0-.54,0-.72-.21-.65-.74,0-.07,0-.13.02-.2.11-.9.19-1.8.43-2.67.58-2.05,1.9-3.48,3.76-4.46,1.46-.77,3-1.36,4.58-1.86.25-.08.33-.01.38.23.35,1.62.61,3.26.89,4.89.22,1.28.41,2.57.62,3.86,0,.04.01.08.01.11.06.68-.05.81-.74.81Z"/>
    <path class="cls-2" d="M36.38,41.86c-.77,1.48-1.98,2.57-3.26,3.59-.42.33-.85.64-1.27.97-.1.08-.19.1-.3.02-1.32-.96-2.62-1.95-3.68-3.21-.75-.89-1.28-1.91-1.66-3.02-.12-.34-.13-.69-.11-1.05,0-.05-.02-.13.04-.16.08-.04.12.04.16.08.39.37.81.69,1.25,1,1.27.88,2.68,1.27,4.22,1.28,1.69,0,3.18-.53,4.5-1.56.31-.24.57-.53.88-.81.15,1.1-.31,1.98-.77,2.86Z"/>
  </g>
</svg>